<mxfile host="app.diagrams.net" modified="2023-05-15T05:22:29.418Z" agent="Mozilla/5.0 (Windows NT 10.0; Win64; x64) AppleWebKit/537.36 (KHTML, like Gecko) Chrome/113.0.0.0 Safari/537.36" etag="wHTBZ9OLwWbneL5374m2" version="21.3.0" type="device">
  <diagram name="Page-1" id="Mllx0rWsAcocckL1nVMU">
    <mxGraphModel dx="656" dy="387" grid="1" gridSize="10" guides="1" tooltips="1" connect="1" arrows="1" fold="1" page="1" pageScale="1" pageWidth="850" pageHeight="1100" math="0" shadow="0">
      <root>
        <mxCell id="0" />
        <mxCell id="1" parent="0" />
        <mxCell id="RlTIDKS_mDr_cYO7bVWa-1" value="Location" style="swimlane;fontStyle=1;align=center;verticalAlign=top;childLayout=stackLayout;horizontal=1;startSize=26;horizontalStack=0;resizeParent=1;resizeParentMax=0;resizeLast=0;collapsible=1;marginBottom=0;whiteSpace=wrap;html=1;" vertex="1" parent="1">
          <mxGeometry x="340" y="280" width="280" height="200" as="geometry" />
        </mxCell>
        <mxCell id="RlTIDKS_mDr_cYO7bVWa-2" value="- _inventory: Inventory" style="text;strokeColor=none;fillColor=none;align=left;verticalAlign=top;spacingLeft=4;spacingRight=4;overflow=hidden;rotatable=0;points=[[0,0.5],[1,0.5]];portConstraint=eastwest;whiteSpace=wrap;html=1;" vertex="1" parent="RlTIDKS_mDr_cYO7bVWa-1">
          <mxGeometry y="26" width="280" height="26" as="geometry" />
        </mxCell>
        <mxCell id="RlTIDKS_mDr_cYO7bVWa-3" value="" style="line;strokeWidth=1;fillColor=none;align=left;verticalAlign=middle;spacingTop=-1;spacingLeft=3;spacingRight=3;rotatable=0;labelPosition=right;points=[];portConstraint=eastwest;strokeColor=inherit;" vertex="1" parent="RlTIDKS_mDr_cYO7bVWa-1">
          <mxGeometry y="52" width="280" height="8" as="geometry" />
        </mxCell>
        <mxCell id="RlTIDKS_mDr_cYO7bVWa-4" value="+ Location(string[] ids, string name, string desc)" style="text;strokeColor=none;fillColor=none;align=left;verticalAlign=top;spacingLeft=4;spacingRight=4;overflow=hidden;rotatable=0;points=[[0,0.5],[1,0.5]];portConstraint=eastwest;whiteSpace=wrap;html=1;" vertex="1" parent="RlTIDKS_mDr_cYO7bVWa-1">
          <mxGeometry y="60" width="280" height="26" as="geometry" />
        </mxCell>
        <mxCell id="RlTIDKS_mDr_cYO7bVWa-5" value="+ Locate(string id): GameObject" style="text;strokeColor=none;fillColor=none;align=left;verticalAlign=top;spacingLeft=4;spacingRight=4;overflow=hidden;rotatable=0;points=[[0,0.5],[1,0.5]];portConstraint=eastwest;whiteSpace=wrap;html=1;" vertex="1" parent="RlTIDKS_mDr_cYO7bVWa-1">
          <mxGeometry y="86" width="280" height="44" as="geometry" />
        </mxCell>
        <mxCell id="RlTIDKS_mDr_cYO7bVWa-11" value="+ Inventory :: Inventory &amp;lt;&amp;lt; readonly, property &amp;gt;&amp;gt;" style="text;strokeColor=none;fillColor=none;align=left;verticalAlign=top;spacingLeft=4;spacingRight=4;overflow=hidden;rotatable=0;points=[[0,0.5],[1,0.5]];portConstraint=eastwest;whiteSpace=wrap;html=1;" vertex="1" parent="RlTIDKS_mDr_cYO7bVWa-1">
          <mxGeometry y="130" width="280" height="26" as="geometry" />
        </mxCell>
        <mxCell id="RlTIDKS_mDr_cYO7bVWa-12" value="+ FullDescription :: string &lt;br&gt;&amp;lt;&amp;lt; override, readonly, property &amp;gt;&amp;gt;" style="text;strokeColor=none;fillColor=none;align=left;verticalAlign=top;spacingLeft=4;spacingRight=4;overflow=hidden;rotatable=0;points=[[0,0.5],[1,0.5]];portConstraint=eastwest;whiteSpace=wrap;html=1;" vertex="1" parent="RlTIDKS_mDr_cYO7bVWa-1">
          <mxGeometry y="156" width="280" height="44" as="geometry" />
        </mxCell>
        <mxCell id="RlTIDKS_mDr_cYO7bVWa-18" style="edgeStyle=orthogonalEdgeStyle;rounded=0;orthogonalLoop=1;jettySize=auto;html=1;exitX=0.5;exitY=0;exitDx=0;exitDy=0;entryX=0.5;entryY=1;entryDx=0;entryDy=0;endArrow=block;endFill=0;" edge="1" parent="1" source="RlTIDKS_mDr_cYO7bVWa-13" target="RlTIDKS_mDr_cYO7bVWa-14">
          <mxGeometry relative="1" as="geometry" />
        </mxCell>
        <mxCell id="RlTIDKS_mDr_cYO7bVWa-13" value="&lt;b&gt;Player&lt;/b&gt;" style="html=1;whiteSpace=wrap;" vertex="1" parent="1">
          <mxGeometry x="160" y="280" width="110" height="50" as="geometry" />
        </mxCell>
        <mxCell id="RlTIDKS_mDr_cYO7bVWa-14" value="&lt;b&gt;GameObject&lt;/b&gt;" style="html=1;whiteSpace=wrap;" vertex="1" parent="1">
          <mxGeometry x="160" y="120" width="110" height="50" as="geometry" />
        </mxCell>
        <mxCell id="RlTIDKS_mDr_cYO7bVWa-15" value="«interface»&lt;br&gt;&lt;b&gt;IHaveInventory&lt;/b&gt;" style="html=1;whiteSpace=wrap;" vertex="1" parent="1">
          <mxGeometry x="160" y="440" width="110" height="50" as="geometry" />
        </mxCell>
        <mxCell id="RlTIDKS_mDr_cYO7bVWa-19" style="edgeStyle=orthogonalEdgeStyle;rounded=0;orthogonalLoop=1;jettySize=auto;html=1;exitX=0.5;exitY=0;exitDx=0;exitDy=0;entryX=0.5;entryY=1;entryDx=0;entryDy=0;endArrow=block;endFill=0;" edge="1" parent="1" source="RlTIDKS_mDr_cYO7bVWa-1" target="RlTIDKS_mDr_cYO7bVWa-14">
          <mxGeometry relative="1" as="geometry">
            <mxPoint x="225" y="290" as="sourcePoint" />
            <mxPoint x="225" y="180" as="targetPoint" />
          </mxGeometry>
        </mxCell>
        <mxCell id="RlTIDKS_mDr_cYO7bVWa-20" value="" style="endArrow=block;endFill=0;endSize=12;html=1;rounded=0;exitX=0.5;exitY=1;exitDx=0;exitDy=0;entryX=0.5;entryY=0;entryDx=0;entryDy=0;" edge="1" parent="1" source="RlTIDKS_mDr_cYO7bVWa-13" target="RlTIDKS_mDr_cYO7bVWa-15">
          <mxGeometry width="160" relative="1" as="geometry">
            <mxPoint x="340" y="300" as="sourcePoint" />
            <mxPoint x="500" y="300" as="targetPoint" />
          </mxGeometry>
        </mxCell>
        <mxCell id="RlTIDKS_mDr_cYO7bVWa-21" value="" style="endArrow=block;endFill=0;endSize=12;html=1;rounded=0;exitX=0;exitY=0.5;exitDx=0;exitDy=0;entryX=0.5;entryY=0;entryDx=0;entryDy=0;" edge="1" parent="1" source="RlTIDKS_mDr_cYO7bVWa-5" target="RlTIDKS_mDr_cYO7bVWa-15">
          <mxGeometry width="160" relative="1" as="geometry">
            <mxPoint x="225" y="340" as="sourcePoint" />
            <mxPoint x="225" y="450" as="targetPoint" />
            <Array as="points">
              <mxPoint x="215" y="388" />
            </Array>
          </mxGeometry>
        </mxCell>
        <mxCell id="RlTIDKS_mDr_cYO7bVWa-22" value="&amp;lt;&amp;lt;implements&amp;gt;&amp;gt;" style="text;html=1;strokeColor=none;fillColor=none;align=center;verticalAlign=middle;whiteSpace=wrap;rounded=0;" vertex="1" parent="1">
          <mxGeometry x="140" y="390" width="60" height="30" as="geometry" />
        </mxCell>
        <mxCell id="RlTIDKS_mDr_cYO7bVWa-23" value="" style="endArrow=open;endFill=1;endSize=12;html=1;rounded=0;" edge="1" parent="1">
          <mxGeometry width="160" relative="1" as="geometry">
            <mxPoint x="270" y="300" as="sourcePoint" />
            <mxPoint x="340" y="300" as="targetPoint" />
          </mxGeometry>
        </mxCell>
      </root>
    </mxGraphModel>
  </diagram>
</mxfile>
